# Blender v2.79 (sub 0) OBJ File: ''
# www.blender.org
mtllib room_m.mtl
o Cube.005_Cube.010
v -25.217175 -12.936463 -19.827858
v -25.079269 14.893594 -19.518026
v 25.914015 14.634114 -19.076761
v 25.776104 -13.195945 -19.386593
v -25.228745 -12.951169 -18.869148
v 25.764555 -13.210654 -18.427883
v 25.902464 14.619393 -18.118055
v -25.090815 14.878869 -18.559320
v -25.339285 14.977250 -18.447046
v -25.337463 -13.389467 -18.618692
v -25.280499 -13.700645 18.537525
v -25.282320 14.666087 18.709171
v -24.211248 14.977330 -18.448301
v -24.154274 14.666158 18.707926
v -24.152454 -13.700562 18.536285
v -24.209429 -13.389393 -18.619932
v 25.907238 -12.938043 19.264740
v 25.772545 14.889689 18.828016
v -25.223413 14.641719 18.776285
v -25.088705 -13.186017 19.213015
v 25.908703 -12.958852 18.306065
v -25.087261 -13.206826 18.254339
v -25.221973 14.620898 17.817612
v 25.773975 14.868869 17.869341
v 25.567993 -13.964428 -18.949543
v 25.567993 -13.964476 18.941904
v -24.296574 -13.964476 18.941900
v -24.296558 -13.964428 -18.949553
v 25.567997 -12.836558 -18.949537
v -24.296570 -12.836558 -18.949547
v -24.296577 -12.836606 18.941895
v 25.567974 -12.836606 18.941914
vt 0.000000 0.000000
vt 1.000000 0.000000
vt 1.000000 1.000000
vt 0.000000 1.000000
vt 0.000000 0.000000
vt 1.000000 0.000000
vt 1.000000 1.000000
vt 0.000000 1.000000
vt 1.000000 0.000000
vt 1.000000 1.000000
vt 0.000000 1.000000
vt 0.000000 0.000000
vt 1.000000 0.000000
vt 0.000000 1.000000
vt 0.000000 0.000000
vt 1.000000 0.000000
vt 1.000000 1.000000
vt 1.000000 0.000000
vt 1.000000 1.000000
vt 0.000000 1.000000
vt 0.000000 0.000000
vt 1.000000 0.000000
vt 1.000000 1.000000
vt 0.000000 1.000000
vt 0.000000 0.000000
vt 1.000000 0.000000
vt 1.000000 1.000000
vt 0.000000 1.000000
vt 1.000000 0.000000
vt 1.000000 1.000000
vt 0.000000 1.000000
vt 0.000000 0.000000
vt 1.000000 0.000000
vt 0.000000 1.000000
vt 0.000000 0.000000
vt 1.000000 0.000000
vt 1.000000 1.000000
vt 1.000000 0.000000
vt 1.000000 1.000000
vt 0.000000 1.000000
vt 0.000000 0.000000
vt 1.000000 0.000000
vt 1.000000 1.000000
vt 0.000000 1.000000
vt 0.000000 0.000000
vt 1.000000 0.000000
vt 1.000000 1.000000
vt 0.000000 1.000000
vt 1.000000 0.000000
vt 1.000000 1.000000
vt 0.000000 1.000000
vt 0.000000 0.000000
vt 1.000000 0.000000
vt 0.000000 1.000000
vt 0.000000 0.000000
vt 1.000000 0.000000
vt 1.000000 1.000000
vt 1.000000 0.000000
vt 1.000000 1.000000
vt 0.000000 1.000000
vt 0.000000 0.000000
vt 1.000000 0.000000
vt 1.000000 1.000000
vt 0.000000 1.000000
vt 0.000000 0.000000
vt 1.000000 0.000000
vt 1.000000 1.000000
vt 0.000000 1.000000
vt 1.000000 0.000000
vt 1.000000 1.000000
vt 0.000000 1.000000
vt 0.000000 0.000000
vt 1.000000 0.000000
vt 0.000000 1.000000
vt 0.000000 0.000000
vt 1.000000 0.000000
vt 1.000000 1.000000
vt 1.000000 0.000000
vt 1.000000 1.000000
vt 0.000000 1.000000
vn 0.0000 -1.0000 -0.0000
vn -0.0000 1.0000 0.0000
vn 1.0000 0.0000 0.0000
vn -0.0000 -0.0000 1.0000
vn -1.0000 -0.0000 -0.0000
vn 0.0000 0.0000 -1.0000
vn -0.0011 0.0157 0.9999
vn 0.0011 -0.0157 -0.9999
vn 1.0000 0.0049 0.0014
vn -0.0048 0.9998 -0.0217
vn -1.0000 -0.0049 -0.0014
vn 0.0048 -0.9998 0.0217
vn 0.0087 0.0111 -0.9999
vn -0.0087 -0.0111 0.9999
vn -0.9999 0.0051 -0.0120
vn 0.0050 0.9999 0.0154
vn 0.9999 -0.0051 0.0120
vn -0.0050 -0.9999 -0.0154
vn -1.0000 -0.0001 0.0015
vn 1.0000 0.0001 -0.0015
vn -0.0011 0.0061 -1.0000
vn 0.0001 -1.0000 -0.0084
vn 0.0011 -0.0061 1.0000
vn -0.0001 1.0000 0.0084
usemtl Material.046
s 1
f 25/1/1 26/2/1 27/3/1 28/4/1
f 29/5/2 30/6/2 31/7/2 32/8/2
f 25/1/3 29/9/3 32/10/3 26/11/3
f 26/12/4 32/13/4 31/7/4 27/14/4
f 27/15/5 31/16/5 30/17/5 28/4/5
f 29/5/6 25/18/6 28/19/6 30/20/6
usemtl Material.048
f 17/21/7 18/22/7 19/23/7 20/24/7
f 21/25/8 22/26/8 23/27/8 24/28/8
f 17/21/9 21/29/9 24/30/9 18/31/9
f 18/32/10 24/33/10 23/27/10 19/34/10
f 19/35/11 23/36/11 22/37/11 20/24/11
f 21/25/12 17/38/12 20/39/12 22/40/12
usemtl Material.045
f 1/41/13 2/42/13 3/43/13 4/44/13
f 5/45/14 6/46/14 7/47/14 8/48/14
f 1/41/15 5/49/15 8/50/15 2/51/15
f 2/52/16 8/53/16 7/47/16 3/54/16
f 3/55/17 7/56/17 6/57/17 4/44/17
f 5/45/18 1/58/18 4/59/18 6/60/18
usemtl Material.047
f 9/61/19 10/62/19 11/63/19 12/64/19
f 13/65/20 14/66/20 15/67/20 16/68/20
f 9/61/21 13/69/21 16/70/21 10/71/21
f 10/72/22 16/73/22 15/67/22 11/74/22
f 11/75/23 15/76/23 14/77/23 12/64/23
f 13/65/24 9/78/24 12/79/24 14/80/24
